# xmcd
#
# Track frame offsets:
#	183
#	13100
#	24930
#	36768
#	48368
#	59738
#	71580
#	81675
#	94138
#	105975
#	118063
#	128300
#	139495
#	148230
#	158750
#	170728
#	184215
#	196690
#	206990
#	218208
#
# Disc length: 3064 seconds
# Revision: 0
# Processed by: cddbd v1.5.2PL0 Copyright (c) Steve Scherf et al.
# Submitted via: dBpowerAMP V12.0
#
DISCID=2d0bf614
DTITLE=Hank Snow - Snow Country
DYEAR=1950
DGENRE=Country
TTITLE0=I'm Movin' On (Mono)
TTITLE1=The Restless One (Stereo)
TTITLE2=Ninety Miles an Hour (Down a Dead End Street) (Stereo)
TTITLE3=I Stepped Over the Line (Stereo)
TTITLE4=(Now and Then There's) A Fool Such as I (Mono)
TTITLE5=Tangled Mind (Mono)
TTITLE6=Breakfast With the Blues (Stereo)
TTITLE7=Yellow Roses (Mono)
TTITLE8=Whispering Rain (Mono)
TTITLE9=Miller's Cave (Stereo)
TTITLE10=Big Wheels (Mono)
TTITLE11=Cryin', Prayin', Waitin', Hopin' (Mono)
TTITLE12=A Women Captured Me (Mono)
TTITLE13=Conscience I'm Guilty (Stereo)
TTITLE14=Married by the Bible, Divorced by the Law (Mono)
TTITLE15=I Don't Hurt Anymore (Mono)
TTITLE16=I've Cried a Mile (Mono)
TTITLE17=You Take the Future (And I'll Take the Past) (Stereo)
TTITLE18=Doggone That Train (Stereo)
TTITLE19=The Last Ride (Stereo)
EXTD=
EXTT0=
EXTT1=
EXTT2=
EXTT3=
EXTT4=
EXTT5=
EXTT6=
EXTT7=
EXTT8=
EXTT9=
EXTT10=
EXTT11=
EXTT12=
EXTT13=
EXTT14=
EXTT15=
EXTT16=
EXTT17=
EXTT18=
EXTT19=
PLAYORDER=
